# xmcd
#
# Track frame offsets: 
#        150
#        23165
#        48177
#        70152
#        93375
#        111872
#        131470
#        152707
#        171770
#        195747
#
# Disc length: 2967 seconds
#
# Revision: 12
# Processed by: cddbd v1.5.2PL0 Copyright (c) Steve Scherf et al.
# Submitted via: ExactAudioCopy v1.3
#
DISCID=7d0b950a
DTITLE=??? - ?????
DYEAR=2002
DGENRE=Polka
TTITLE0=?????
TTITLE1=??
TTITLE2=???
TTITLE3=????
TTITLE4=????
TTITLE5=???
TTITLE6=??????
TTITLE7=????
TTITLE8=? ???
TTITLE9=??????
EXTD=YEAR: 2002 ID3G: 75
EXTT0=
EXTT1=
EXTT2=
EXTT3=
EXTT4=
EXTT5=
EXTT6=
EXTT7=
EXTT8=
EXTT9=
PLAYORDER=
